<svg version="1.1" xmlns="http://www.w3.org/2000/svg" viewBox="0 0 1240.6197204589844 377.00001525878906" width="1240.6197204589844" height="377.00001525878906">
  <!-- svg-source:excalidraw -->
  
  <defs>
    <style class="style-fonts">
      @font-face {
        font-family: "Virgil";
        src: url("https://file%2B.vscode-resource.vscode-cdn.net/home/andres/.vscode-oss/extensions/lrstanley.excalidraw-editor-3.7.4-universal/public//dist/excalidraw-assets/Virgil.woff2");
      }
      @font-face {
        font-family: "Cascadia";
        src: url("https://file%2B.vscode-resource.vscode-cdn.net/home/andres/.vscode-oss/extensions/lrstanley.excalidraw-editor-3.7.4-universal/public//dist/excalidraw-assets/Cascadia.woff2");
      }
      @font-face {
        font-family: "Assistant";
        src: url("https://file%2B.vscode-resource.vscode-cdn.net/home/andres/.vscode-oss/extensions/lrstanley.excalidraw-editor-3.7.4-universal/public//dist/excalidraw-assets/Assistant-Regular.woff2");
      }
    </style>
    
  </defs>
  <rect x="0" y="0" width="1240.6197204589844" height="377.00001525878906" fill="#ffffff"></rect><g transform="translate(15.006256103515625 191.1999969482422) rotate(0 488.2969207763672 10.781265258789062)" stroke="none"><path fill="#1e1e1e" d="M 0.08,-1.55 Q 0.08,-1.55 3.12,-1.35 6.15,-1.15 8.64,-1.73 11.12,-2.31 15.53,-2.23 19.95,-2.14 24.84,-2.10 29.74,-2.05 37.35,-2.02 44.95,-2.00 57.21,-0.95 69.47,0.09 87.77,1.92 106.08,3.75 128.70,6.60 151.33,9.45 172.62,10.66 193.92,11.86 214.40,13.76 234.87,15.66 250.80,16.81 266.72,17.96 281.45,19.49 296.18,21.01 312.42,22.35 328.67,23.69 342.81,24.60 356.95,25.51 372.26,25.90 387.56,26.29 401.31,26.45 415.06,26.62 430.22,26.69 445.38,26.76 462.86,26.79 480.34,26.82 498.86,28.21 517.38,29.61 536.59,30.20 555.79,30.79 579.84,31.38 603.88,31.98 621.64,31.20 639.40,30.42 656.26,29.05 673.12,27.69 688.95,27.11 704.78,26.52 722.18,25.59 739.58,24.65 751.13,24.25 762.69,23.85 773.47,23.68 784.25,23.51 795.00,22.75 805.75,21.99 812.42,21.67 819.09,21.34 824.96,20.52 830.82,19.70 834.56,18.02 838.29,16.34 840.71,15.57 843.12,14.81 845.44,13.83 847.76,12.85 850.51,11.73 853.25,10.61 855.84,9.77 858.43,8.94 862.35,8.22 866.28,7.51 870.74,7.20 875.21,6.90 881.52,6.09 887.83,5.28 893.99,4.59 900.15,3.89 905.52,3.25 910.89,2.62 915.23,2.00 919.57,1.39 922.84,1.12 926.11,0.85 928.19,0.73 930.27,0.60 933.16,0.22 936.06,-0.16 938.73,-0.32 941.41,-0.49 943.10,-0.95 944.79,-1.40 947.66,-1.91 950.54,-2.42 953.13,-3.32 955.72,-4.22 955.88,-4.23 956.05,-4.24 956.21,-4.21 956.38,-4.18 956.53,-4.12 956.68,-4.05 956.81,-3.94 956.94,-3.84 957.04,-3.71 957.15,-3.58 957.21,-3.43 957.28,-3.28 957.31,-3.11 957.34,-2.95 957.33,-2.78 957.32,-2.62 957.27,-2.46 957.22,-2.30 957.14,-2.16 957.05,-2.02 956.93,-1.90 956.82,-1.78 956.67,-1.69 956.53,-1.61 956.37,-1.56 956.21,-1.51 955.19,-2.10 954.16,-2.68 950.54,-2.71 946.92,-2.74 940.04,-4.84 933.15,-6.93 924.22,-8.49 915.29,-10.05 910.11,-10.73 904.92,-11.40 900.78,-11.72 896.63,-12.05 895.32,-11.28 894.00,-10.52 894.33,-9.47 894.65,-8.41 899.33,-5.99 904.01,-3.57 917.06,1.71 930.11,7.00 937.77,10.31 945.43,13.62 953.04,15.33 960.65,17.05 965.32,17.80 969.99,18.55 970.14,18.61 970.30,18.66 970.43,18.75 970.57,18.84 970.68,18.96 970.79,19.08 970.87,19.23 970.95,19.37 971.00,19.53 971.04,19.69 971.04,19.85 971.04,20.02 971.01,20.18 970.97,20.34 970.90,20.49 970.83,20.63 970.72,20.76 970.61,20.88 970.48,20.98 970.35,21.08 970.19,21.14 970.04,21.20 969.88,21.22 969.71,21.25 969.55,21.23 969.39,21.21 968.91,22.70 968.43,24.19 965.58,25.11 962.73,26.04 958.61,27.70 954.48,29.35 950.50,30.10 946.53,30.84 943.10,31.15 939.68,31.46 936.56,31.93 933.45,32.39 931.16,32.91 928.87,33.42 927.47,34.98 926.06,36.55 925.84,36.69 925.63,36.83 925.38,36.89 925.13,36.95 924.88,36.93 924.62,36.92 924.38,36.82 924.15,36.72 923.96,36.55 923.76,36.38 923.64,36.16 923.51,35.94 923.46,35.68 923.41,35.43 923.44,35.18 923.47,34.93 923.58,34.69 923.69,34.46 923.87,34.28 924.05,34.10 924.28,33.98 924.51,33.87 924.76,33.83 925.02,33.79 925.27,33.84 925.52,33.89 925.75,34.01 925.97,34.13 926.14,34.32 926.32,34.51 926.42,34.75 926.52,34.98 926.54,35.24 926.57,35.49 926.51,35.74 926.45,35.99 926.31,36.21 926.18,36.42 925.98,36.59 925.78,36.75 925.54,36.84 925.30,36.93 925.04,36.94 924.79,36.95 924.54,36.87 924.30,36.80 924.09,36.65 923.88,36.51 923.73,36.30 923.58,36.09 923.50,35.85 923.42,35.60 923.43,35.35 923.43,35.09 923.52,34.85 923.60,34.61 923.76,34.41 923.92,34.21 923.92,34.21 923.92,34.21 926.02,32.56 928.13,30.92 930.59,30.34 933.05,29.76 936.24,29.27 939.44,28.79 942.73,28.49 946.03,28.19 949.75,27.50 953.47,26.82 957.73,25.10 961.98,23.38 964.22,22.87 966.46,22.35 968.22,20.45 969.99,18.55 970.14,18.61 970.30,18.66 970.43,18.75 970.57,18.84 970.68,18.96 970.79,19.08 970.87,19.23 970.95,19.37 971.00,19.53 971.04,19.69 971.04,19.85 971.04,20.02 971.01,20.18 970.97,20.34 970.90,20.49 970.83,20.63 970.72,20.76 970.61,20.88 970.48,20.98 970.35,21.08 970.19,21.14 970.04,21.20 969.88,21.22 969.71,21.25 969.55,21.23 969.39,21.21 964.72,20.48 960.05,19.75 952.18,17.98 944.32,16.21 936.67,12.94 929.02,9.68 915.79,4.36 902.56,-0.95 897.36,-4.01 892.16,-7.06 891.96,-9.15 891.76,-11.23 894.09,-13.00 896.43,-14.76 900.85,-14.52 905.28,-14.28 910.54,-13.64 915.79,-13.01 924.93,-11.47 934.06,-9.94 940.46,-8.00 946.86,-6.07 950.71,-6.15 954.56,-6.23 955.14,-5.23 955.72,-4.22 955.88,-4.23 956.05,-4.24 956.21,-4.21 956.38,-4.18 956.53,-4.12 956.68,-4.05 956.81,-3.94 956.94,-3.84 957.04,-3.71 957.15,-3.58 957.21,-3.43 957.28,-3.28 957.31,-3.11 957.34,-2.95 957.33,-2.78 957.32,-2.62 957.27,-2.46 957.22,-2.30 957.14,-2.16 957.05,-2.02 956.93,-1.90 956.82,-1.78 956.67,-1.69 956.53,-1.61 956.37,-1.56 956.21,-1.51 953.63,-0.58 951.05,0.33 948.24,0.86 945.44,1.39 943.51,1.77 941.58,2.15 939.00,2.31 936.41,2.48 933.41,2.88 930.41,3.28 928.37,3.38 926.32,3.47 923.13,3.73 919.94,3.99 915.57,4.61 911.20,5.22 905.82,5.86 900.44,6.50 894.31,7.19 888.17,7.88 881.78,8.70 875.38,9.52 871.06,9.81 866.74,10.09 862.99,10.77 859.23,11.44 856.74,12.24 854.24,13.04 851.51,14.16 848.78,15.27 846.35,16.29 843.91,17.32 841.63,18.03 839.35,18.74 835.28,20.52 831.21,22.30 825.21,23.13 819.22,23.97 812.58,24.29 805.94,24.61 795.11,25.38 784.29,26.14 773.53,26.31 762.78,26.48 751.25,26.88 739.72,27.27 722.30,28.21 704.88,29.15 689.11,29.73 673.34,30.31 656.43,31.68 639.52,33.04 621.67,33.83 603.81,34.61 579.76,34.01 555.71,33.41 536.45,32.82 517.19,32.23 498.76,30.84 480.34,29.45 462.85,29.42 445.37,29.39 430.20,29.32 415.03,29.25 401.26,29.08 387.49,28.92 372.14,28.53 356.78,28.14 342.62,27.23 328.45,26.31 312.18,24.97 295.91,23.64 281.22,22.11 266.53,20.59 250.58,19.44 234.63,18.29 214.20,16.40 193.77,14.51 172.38,13.30 151.00,12.09 128.40,9.25 105.81,6.42 87.52,4.60 69.24,2.78 57.09,1.75 44.94,0.72 37.33,0.71 29.72,0.71 24.81,0.69 19.89,0.66 15.82,0.58 11.75,0.50 8.89,1.16 6.02,1.82 2.97,1.69 -0.08,1.55 -0.27,1.52 -0.45,1.49 -0.62,1.41 -0.80,1.34 -0.94,1.22 -1.09,1.11 -1.21,0.96 -1.33,0.81 -1.41,0.64 -1.48,0.47 -1.52,0.28 -1.55,0.10 -1.54,-0.08 -1.53,-0.27 -1.48,-0.45 -1.42,-0.63 -1.33,-0.79 -1.23,-0.95 -1.10,-1.09 -0.97,-1.22 -0.80,-1.32 -0.64,-1.42 -0.46,-1.47 -0.29,-1.53 -0.10,-1.54 0.08,-1.55 0.08,-1.55 L 0.08,-1.55 Z"></path></g><g transform="translate(10 158.18125915527344) rotate(0 35.14996337890625 12.5)"><text x="0" y="0" font-family="Virgil, Segoe UI Emoji" font-size="20px" fill="#1e1e1e" text-anchor="start" style="white-space: pre;" direction="ltr" dominant-baseline="text-before-edge">Peticón</text></g><g stroke-linecap="round" transform="translate(1005.00634765625 10) rotate(0 60.496826171875 46.490631103515625)"><path d="M23.25 0 C37.92 -0.03, 53.53 -1.68, 97.75 0 M23.25 0 C43.37 -0.25, 61.73 0.32, 97.75 0 M97.75 0 C113.42 -1.93, 121.75 9.7, 120.99 23.25 M97.75 0 C111.39 0.73, 122.09 6.09, 120.99 23.25 M120.99 23.25 C122.39 35.2, 121.62 45.72, 120.99 69.74 M120.99 23.25 C120.74 40.85, 121.48 58.33, 120.99 69.74 M120.99 69.74 C120.9 87.19, 114.61 94.34, 97.75 92.98 M120.99 69.74 C121.63 84.18, 112.52 92.12, 97.75 92.98 M97.75 92.98 C67.38 91.79, 38.85 94.55, 23.25 92.98 M97.75 92.98 C76.6 93.46, 53.21 92.54, 23.25 92.98 M23.25 92.98 C6.58 93.35, 1.42 85.28, 0 69.74 M23.25 92.98 C7.64 93.69, -2.19 85.23, 0 69.74 M0 69.74 C-1.44 53, -1.68 33.19, 0 23.25 M0 69.74 C0.5 55.57, -0.21 39.5, 0 23.25 M0 23.25 C1.71 8.06, 7.08 -0.49, 23.25 0 M0 23.25 C-0.97 8.46, 6.33 1.7, 23.25 0" stroke="#1e1e1e" stroke-width="1" fill="none"></path></g><g transform="translate(982.206298828125 43.600006103515625) rotate(0 5.1937255859375 117.2906265258789)" stroke="none"><path fill="#1e1e1e" d="M 1.55,-0.17 Q 1.55,-0.17 1.80,2.41 2.05,5.00 2.15,7.52 2.25,10.04 2.63,13.11 3.00,16.18 3.16,18.94 3.32,21.69 3.04,25.35 2.75,29.01 2.98,33.54 3.20,38.08 2.94,42.21 2.68,46.33 1.14,49.65 -0.40,52.96 -0.98,57.19 -1.55,61.42 -1.13,66.26 -0.71,71.10 -0.53,76.35 -0.35,81.61 0.06,85.16 0.48,88.70 0.66,93.04 0.84,97.38 1.60,102.23 2.36,107.09 3.03,111.25 3.70,115.41 4.99,119.50 6.29,123.60 7.22,129.96 8.15,136.33 8.88,141.05 9.61,145.78 10.60,150.87 11.60,155.96 12.37,159.86 13.14,163.76 13.48,166.85 13.81,169.95 13.95,172.65 14.09,175.36 14.15,177.89 14.21,180.42 14.64,182.05 15.06,183.68 15.21,187.31 15.37,190.94 14.37,195.37 13.37,199.80 12.96,203.26 12.55,206.71 12.02,209.64 11.49,212.56 10.55,215.59 9.61,218.62 8.48,220.67 7.35,222.73 6.96,224.76 6.57,226.79 6.08,228.51 5.60,230.24 5.34,232.55 5.08,234.86 4.99,235.12 4.91,235.38 4.74,235.61 4.57,235.83 4.34,235.98 4.11,236.14 3.84,236.21 3.57,236.29 3.29,236.27 3.02,236.25 2.76,236.15 2.50,236.05 2.29,235.87 2.08,235.69 1.93,235.45 1.79,235.21 1.73,234.94 1.67,234.67 1.70,234.39 1.73,234.11 1.85,233.86 1.97,233.61 2.16,233.41 2.35,233.21 2.60,233.08 2.84,232.95 3.12,232.90 3.39,232.86 3.67,232.90 3.94,232.95 4.19,233.08 4.43,233.21 4.62,233.41 4.81,233.61 4.93,233.87 5.05,234.12 5.08,234.40 5.10,234.67 5.04,234.94 4.98,235.22 4.84,235.45 4.70,235.69 4.48,235.87 4.27,236.05 4.01,236.15 3.75,236.26 3.48,236.27 3.20,236.28 2.93,236.21 2.66,236.13 2.43,235.98 2.20,235.82 2.04,235.60 1.87,235.38 1.78,235.11 1.69,234.85 1.69,234.57 1.69,234.29 1.69,234.29 1.69,234.29 2.23,231.80 2.77,229.31 3.37,227.77 3.97,226.24 4.49,223.86 5.01,221.47 6.03,219.64 7.06,217.82 7.94,214.95 8.83,212.08 9.33,209.24 9.84,206.40 10.26,202.79 10.67,199.19 11.61,195.11 12.55,191.04 12.38,187.66 12.22,184.27 11.91,182.38 11.59,180.49 11.53,177.99 11.47,175.50 11.34,172.86 11.20,170.23 10.88,167.25 10.56,164.27 9.79,160.37 9.02,156.47 8.02,151.32 7.01,146.18 6.28,141.44 5.55,136.71 4.67,130.54 3.78,124.38 2.44,120.11 1.10,115.83 0.43,111.66 -0.23,107.49 -1.01,102.49 -1.78,97.49 -1.96,93.25 -2.13,89.01 -2.56,85.35 -2.99,81.70 -3.16,76.51 -3.34,71.32 -3.76,66.19 -4.18,61.06 -3.50,56.45 -2.81,51.84 -1.39,48.97 0.03,46.09 0.26,42.15 0.50,38.21 0.27,33.51 0.03,28.80 0.30,25.33 0.56,21.86 0.38,19.20 0.20,16.54 -0.20,13.36 -0.62,10.19 -0.77,7.75 -0.91,5.32 -1.23,2.75 -1.55,0.17 -1.55,-0.01 -1.54,-0.20 -1.50,-0.38 -1.45,-0.56 -1.36,-0.73 -1.27,-0.90 -1.14,-1.04 -1.02,-1.18 -0.86,-1.28 -0.71,-1.39 -0.53,-1.45 -0.35,-1.52 -0.17,-1.54 0.01,-1.56 0.20,-1.53 0.39,-1.51 0.56,-1.44 0.74,-1.37 0.89,-1.26 1.04,-1.15 1.17,-1.01 1.29,-0.87 1.38,-0.70 1.46,-0.53 1.50,-0.35 1.55,-0.17 1.55,-0.17 L 1.55,-0.17 Z"></path></g><g transform="translate(1006 140.1812515258789) rotate(0 112.30986022949219 12.5)"><text x="0" y="0" font-family="Virgil, Segoe UI Emoji" font-size="20px" fill="#1e1e1e" text-anchor="start" style="white-space: pre;" direction="ltr" dominant-baseline="text-before-edge">Ver todos los usuarios</text></g><g stroke-linecap="round" transform="translate(361.8062744140625 29.78125) rotate(0 72.49688720703125 94.20001983642578)"><path d="M32 0 C58.53 -1.41, 79.78 1.65, 112.99 0 M32 0 C60.11 0.33, 89.83 0.91, 112.99 0 M112.99 0 C133.36 -0.74, 145.23 12.4, 144.99 32 M112.99 0 C133.56 1.44, 146.39 12.87, 144.99 32 M144.99 32 C145.02 55.86, 147.06 83.5, 144.99 156.4 M144.99 32 C146.09 79.96, 146.09 126.7, 144.99 156.4 M144.99 156.4 C146.44 179.4, 132.78 189.68, 112.99 188.4 M144.99 156.4 C142.72 178.13, 133.53 186.53, 112.99 188.4 M112.99 188.4 C88.58 190.48, 60.06 187.29, 32 188.4 M112.99 188.4 C82.43 188.56, 52.01 188.49, 32 188.4 M32 188.4 C10.69 190.06, -1.27 178.85, 0 156.4 M32 188.4 C11.75 186.93, -0.1 177.23, 0 156.4 M0 156.4 C-0.56 123.84, 1.28 86.41, 0 32 M0 156.4 C-1.39 127.67, -1.79 98.42, 0 32 M0 32 C1.08 11.21, 9.98 -1.19, 32 0 M0 32 C0.98 12.53, 11.79 1.99, 32 0" stroke="#1e1e1e" stroke-width="1" fill="none"></path></g><g stroke-linecap="round" transform="translate(469.8062744140625 104.80000305175781) rotate(0 13.696868896484375 11.690628051757812)"><path d="M10.9 -0.17 C13.54 -0.8, 17.54 0.53, 20.07 1.72 C22.61 2.92, 25.11 4.67, 26.13 7.01 C27.16 9.34, 27.19 13.32, 26.23 15.72 C25.26 18.13, 22.86 20.1, 20.35 21.43 C17.84 22.75, 13.97 24.06, 11.15 23.68 C8.32 23.29, 5.29 21.14, 3.41 19.1 C1.53 17.06, -0.09 13.89, -0.14 11.46 C-0.19 9.02, 1.15 6.42, 3.12 4.51 C5.08 2.6, 9.95 0.73, 11.64 -0.01 C13.33 -0.74, 13.12 -0.04, 13.26 0.09 M14.56 0.42 C17.38 0.38, 20.76 1.65, 22.78 3.38 C24.81 5.1, 26.26 8.21, 26.72 10.78 C27.17 13.34, 26.96 16.69, 25.5 18.75 C24.04 20.81, 20.93 22.55, 17.94 23.14 C14.96 23.73, 10.47 23.43, 7.6 22.3 C4.73 21.18, 1.86 18.72, 0.71 16.39 C-0.43 14.07, 0.04 10.69, 0.75 8.38 C1.45 6.06, 2.7 3.77, 4.96 2.5 C7.22 1.22, 12.62 0.98, 14.28 0.73 C15.95 0.47, 14.88 1.01, 14.93 0.97" stroke="none" stroke-width="0" fill="#1e1e1e"></path><path d="M12.13 0.04 C14.9 -0.16, 19.11 1.24, 21.57 2.64 C24.02 4.04, 26.17 6.11, 26.86 8.42 C27.54 10.73, 26.86 14.13, 25.67 16.49 C24.48 18.85, 22.28 21.58, 19.73 22.61 C17.19 23.64, 13.37 23.33, 10.43 22.68 C7.49 22.02, 3.88 20.71, 2.12 18.69 C0.36 16.67, -0.38 13.2, -0.13 10.58 C0.11 7.95, 1.44 4.69, 3.58 2.92 C5.72 1.15, 11.06 0.46, 12.7 -0.03 C14.35 -0.53, 13.44 -0.21, 13.46 -0.06 M10.72 0.16 C13.45 -0.4, 17.62 0.17, 20.14 1.36 C22.67 2.56, 24.7 4.88, 25.85 7.32 C27.01 9.77, 27.91 13.63, 27.07 16.03 C26.24 18.42, 23.33 20.41, 20.83 21.69 C18.33 22.96, 15.05 23.94, 12.06 23.66 C9.07 23.38, 5.04 21.95, 2.91 19.99 C0.78 18.04, -0.67 14.55, -0.71 11.92 C-0.75 9.3, 0.82 6.17, 2.67 4.22 C4.53 2.26, 8.98 0.85, 10.42 0.2 C11.86 -0.46, 11.09 0.12, 11.31 0.27" stroke="#1e1e1e" stroke-width="1" fill="none"></path></g><g stroke-linecap="round" transform="translate(112.20626831054688 290.8000030517578) rotate(0 31.096878051757812 31.490631103515625)"><path d="M19.45 2.67 C25.13 -0.24, 33.57 0.12, 39.93 1.92 C46.28 3.72, 53.78 8.11, 57.59 13.48 C61.4 18.84, 63.65 27.38, 62.8 34.11 C61.95 40.84, 57.49 49.2, 52.49 53.87 C47.49 58.53, 39.45 61.56, 32.8 62.09 C26.14 62.63, 17.93 60.87, 12.56 57.09 C7.2 53.31, 2.23 45.94, 0.62 39.44 C-1 32.93, -0.82 24.55, 2.88 18.07 C6.58 11.59, 18.93 3.24, 22.8 0.56 C26.67 -2.13, 26.11 1.46, 26.1 1.96 M22.3 -0.39 C28.35 -2.34, 39.53 -1.01, 45.61 1.98 C51.68 4.96, 55.97 11.11, 58.75 17.52 C61.52 23.93, 64.12 33.8, 62.25 40.42 C60.38 47.05, 53.52 53.5, 47.53 57.26 C41.53 61.03, 32.71 63.86, 26.31 63.03 C19.91 62.2, 13.53 57.02, 9.1 52.28 C4.68 47.55, 0.36 41.01, -0.24 34.61 C-0.83 28.21, 1.78 19.44, 5.52 13.88 C9.27 8.33, 19.35 3.2, 22.24 1.29 C25.13 -0.63, 22.52 1.82, 22.88 2.4" stroke="#1e1e1e" stroke-width="1" fill="none"></path></g><g stroke-linecap="round"><g transform="translate(172.20626831054688 322.00001525878906) rotate(0 62.29689025878906 -0.3093719482421875)"><path d="M0.38 -0.78 C21.29 -0.77, 103.72 0.08, 124.35 0.24 M-0.88 1.43 C19.95 1.09, 102.6 -0.91, 123.28 -1.43" stroke="#1e1e1e" stroke-width="1" fill="none"></path></g></g><mask></mask><g stroke-linecap="round"><g transform="translate(291.00628662109375 318.40000915527344) rotate(0 -1.303131103515625 16.490631103515625)"><path d="M0.45 0.53 C-0.04 6.09, -2.39 27.57, -2.91 32.9 M0.02 0.33 C-0.29 6, -1.32 28.13, -1.83 33.56" stroke="#1e1e1e" stroke-width="1" fill="none"></path></g></g><mask></mask><g stroke-linecap="round"><g transform="translate(253.8062744140625 318.40000915527344) rotate(0 -3.103118896484375 15.290634155273438)"><path d="M0.35 -0.41 C-0.73 4.71, -5.09 25.61, -6.16 30.71 M-0.14 0.57 C-1.31 5.52, -5.54 24.8, -6.57 29.81" stroke="#1e1e1e" stroke-width="1" fill="none"></path></g></g><mask></mask><g stroke-linecap="round"><g transform="translate(273.00628662109375 322.00001525878906) rotate(0 -2.503143310546875 6.890625)"><path d="M0.33 -0.29 C-0.54 2.05, -4.09 11.83, -4.97 14.24 M-0.16 0.75 C-1.12 2.92, -4.54 11.42, -5.38 13.51" stroke="#1e1e1e" stroke-width="1" fill="none"></path></g></g><mask></mask><g transform="translate(210.60626220703125 269.2000274658203) rotate(0 26.199974060058594 12.5)"><text x="0" y="0" font-family="Virgil, Segoe UI Emoji" font-size="20px" fill="#1e1e1e" text-anchor="start" style="white-space: pre;" direction="ltr" dominant-baseline="text-before-edge">token</text></g><g transform="translate(727.8062744140625 292.00001525878906) rotate(0 61.43994140625 37.5)"><text x="0" y="0" font-family="Virgil, Segoe UI Emoji" font-size="20px" fill="#1e1e1e" text-anchor="start" style="white-space: pre;" direction="ltr" dominant-baseline="text-before-edge">id user</text><text x="0" y="25" font-family="Virgil, Segoe UI Emoji" font-size="20px" fill="#1e1e1e" text-anchor="start" style="white-space: pre;" direction="ltr" dominant-baseline="text-before-edge"></text><text x="0" y="50" font-family="Virgil, Segoe UI Emoji" font-size="20px" fill="#1e1e1e" text-anchor="start" style="white-space: pre;" direction="ltr" dominant-baseline="text-before-edge">JWT_secret</text></g></svg>